<svg width="240" height="34" viewBox="0 0 240 34" fill="none" xmlns="http://www.w3.org/2000/svg">
<mask id="path-1-outside-1_57_336" maskUnits="userSpaceOnUse" x="-0.0078125" y="0" width="240" height="34" fill="black">
<rect fill="white" x="-0.0078125" width="240" height="34"/>
<path d="M20.2253 10.288H23.6093L21.6173 22.864H18.2333L18.9773 18.136C17.2493 18.44 15.7853 18.592 14.5853 18.592C12.8893 18.592 11.6493 18.232 10.8653 17.512C10.0813 16.776 9.82528 15.584 10.0973 13.936L10.6733 10.288H14.0573L13.5533 13.552C13.4253 14.384 13.5533 14.968 13.9373 15.304C14.3373 15.64 15.0653 15.808 16.1213 15.808C17.0973 15.808 18.1933 15.664 19.4093 15.376L20.2253 10.288Z"/>
<path d="M37.9467 10.288L37.5147 13.072H32.5947L31.0587 22.864H27.6747L29.2107 13.072H24.3147L24.7467 10.288H37.9467Z"/>
<path d="M36.9897 17.608C36.9897 15.304 37.7657 13.464 39.3177 12.088C40.8857 10.696 42.9257 10 45.4377 10C47.4217 10 48.9737 10.488 50.0937 11.464C51.2297 12.44 51.7977 13.8 51.7977 15.544C51.7977 17.848 51.0137 19.696 49.4457 21.088C47.8937 22.464 45.8697 23.152 43.3737 23.152C41.3897 23.152 39.8297 22.664 38.6937 21.688C37.5577 20.696 36.9897 19.336 36.9897 17.608ZM40.3497 17.224C40.3497 18.216 40.6537 19.016 41.2617 19.624C41.8697 20.232 42.7097 20.536 43.7817 20.536C45.1577 20.536 46.2777 20.104 47.1417 19.24C48.0217 18.36 48.4617 17.256 48.4617 15.928C48.4617 14.936 48.1577 14.136 47.5497 13.528C46.9577 12.92 46.1257 12.616 45.0537 12.616C43.6617 12.616 42.5257 13.056 41.6457 13.936C40.7817 14.8 40.3497 15.896 40.3497 17.224Z"/>
<path d="M53.416 14.392H60.976L60.568 17.008H53.008L53.416 14.392Z"/>
<path d="M75.3088 10.288L74.8768 13.072H69.9568L68.4208 22.864H65.0368L66.5728 13.072H61.6768L62.1088 10.288H75.3088Z"/>
<path d="M74.3518 17.608C74.3518 15.304 75.1278 13.464 76.6798 12.088C78.2478 10.696 80.2878 10 82.7998 10C84.7838 10 86.3358 10.488 87.4558 11.464C88.5918 12.44 89.1598 13.8 89.1598 15.544C89.1598 17.848 88.3758 19.696 86.8078 21.088C85.2558 22.464 83.2318 23.152 80.7358 23.152C78.7518 23.152 77.1918 22.664 76.0558 21.688C74.9198 20.696 74.3518 19.336 74.3518 17.608ZM77.7118 17.224C77.7118 18.216 78.0158 19.016 78.6238 19.624C79.2318 20.232 80.0718 20.536 81.1438 20.536C82.5198 20.536 83.6398 20.104 84.5038 19.24C85.3838 18.36 85.8238 17.256 85.8238 15.928C85.8238 14.936 85.5198 14.136 84.9118 13.528C84.3198 12.92 83.4878 12.616 82.4158 12.616C81.0238 12.616 79.8878 13.056 79.0078 13.936C78.1438 14.8 77.7118 15.896 77.7118 17.224Z"/>
<path d="M106.712 10.288H110.096L108.104 22.864H104.72L105.512 17.848H98.9599L98.1679 22.864H94.7839L96.7759 10.288H100.16L99.4159 15.04H105.968L106.712 10.288Z"/>
<path d="M110.542 17.608C110.542 15.304 111.318 13.464 112.87 12.088C114.438 10.696 116.478 10 118.99 10C120.974 10 122.526 10.488 123.646 11.464C124.782 12.44 125.35 13.8 125.35 15.544C125.35 17.848 124.566 19.696 122.998 21.088C121.446 22.464 119.422 23.152 116.926 23.152C114.942 23.152 113.382 22.664 112.246 21.688C111.11 20.696 110.542 19.336 110.542 17.608ZM113.902 17.224C113.902 18.216 114.206 19.016 114.814 19.624C115.422 20.232 116.262 20.536 117.334 20.536C118.71 20.536 119.83 20.104 120.694 19.24C121.574 18.36 122.014 17.256 122.014 15.928C122.014 14.936 121.71 14.136 121.102 13.528C120.51 12.92 119.678 12.616 118.606 12.616C117.214 12.616 116.078 13.056 115.198 13.936C114.334 14.8 113.902 15.896 113.902 17.224Z"/>
<path d="M136.088 16.336C138.344 16.608 139.472 17.488 139.472 18.976C139.472 19.44 139.384 19.88 139.208 20.296C139.032 20.696 138.736 21.104 138.32 21.52C137.92 21.936 137.304 22.264 136.472 22.504C135.64 22.744 134.648 22.864 133.496 22.864H125.84L127.832 10.288H135.128C136.76 10.288 137.96 10.552 138.728 11.08C139.496 11.592 139.88 12.272 139.88 13.12C139.88 14.864 138.616 15.936 136.088 16.336ZM136.496 13.912C136.496 13.128 135.792 12.736 134.384 12.736H130.832L130.4 15.4H134.096C135.696 15.4 136.496 14.904 136.496 13.912ZM133.448 20.416C135.208 20.416 136.088 19.872 136.088 18.784C136.088 17.936 135.328 17.512 133.808 17.512H130.064L129.608 20.416H133.448Z"/>
<path d="M149.158 10C153.814 10 155.766 12.4 155.014 17.2L154.966 17.584H143.95C143.982 18.656 144.318 19.464 144.958 20.008C145.614 20.536 146.502 20.8 147.622 20.8C149.19 20.8 150.382 20.288 151.198 19.264L154.486 19.432C153.91 20.616 152.998 21.536 151.75 22.192C150.502 22.832 148.998 23.152 147.238 23.152C145.174 23.152 143.55 22.696 142.366 21.784C141.198 20.872 140.614 19.512 140.614 17.704C140.614 15.208 141.398 13.304 142.966 11.992C144.55 10.664 146.614 10 149.158 10ZM148.774 12.352C147.654 12.352 146.694 12.616 145.894 13.144C145.094 13.656 144.534 14.424 144.214 15.448H151.966C152.046 14.488 151.806 13.736 151.246 13.192C150.686 12.632 149.862 12.352 148.774 12.352Z"/>
<path d="M167.513 10.288H170.897L168.905 22.864H165.521L166.313 17.848H159.761L158.969 22.864H155.585L157.577 10.288H160.961L160.217 15.04H166.769L167.513 10.288Z"/>
<path d="M179.359 14.608C182.767 14.608 184.471 15.768 184.471 18.088C184.471 21.272 182.327 22.864 178.039 22.864H171.031L173.023 10.288H176.407L175.735 14.608H179.359ZM178.231 20.344C180.135 20.344 181.087 19.72 181.087 18.472C181.087 17.512 180.311 17.032 178.759 17.032H175.327L174.823 20.344H178.231Z"/>
<path d="M200.715 10.288L193.731 16.24L199.107 22.864H194.811L191.163 17.848H189.387L188.595 22.864H185.211L187.203 10.288H190.587L189.819 15.208H191.307L196.467 10.288H200.715Z"/>
<path d="M199.212 17.608C199.212 15.304 199.988 13.464 201.54 12.088C203.108 10.696 205.148 10 207.66 10C209.644 10 211.196 10.488 212.316 11.464C213.452 12.44 214.02 13.8 214.02 15.544C214.02 17.848 213.236 19.696 211.668 21.088C210.116 22.464 208.092 23.152 205.596 23.152C203.612 23.152 202.052 22.664 200.916 21.688C199.78 20.696 199.212 19.336 199.212 17.608ZM202.572 17.224C202.572 18.216 202.876 19.016 203.484 19.624C204.092 20.232 204.932 20.536 206.004 20.536C207.38 20.536 208.5 20.104 209.364 19.24C210.244 18.36 210.684 17.256 210.684 15.928C210.684 14.936 210.38 14.136 209.772 13.528C209.18 12.92 208.348 12.616 207.276 12.616C205.884 12.616 204.748 13.056 203.868 13.936C203.004 14.8 202.572 15.896 202.572 17.224Z"/>
<path d="M223.366 10C228.022 10 229.974 12.4 229.222 17.2L229.174 17.584H218.158C218.19 18.656 218.526 19.464 219.166 20.008C219.822 20.536 220.71 20.8 221.83 20.8C223.398 20.8 224.59 20.288 225.406 19.264L228.694 19.432C228.118 20.616 227.206 21.536 225.958 22.192C224.71 22.832 223.206 23.152 221.446 23.152C219.382 23.152 217.758 22.696 216.574 21.784C215.406 20.872 214.822 19.512 214.822 17.704C214.822 15.208 215.606 13.304 217.174 11.992C218.758 10.664 220.822 10 223.366 10ZM222.982 12.352C221.862 12.352 220.902 12.616 220.102 13.144C219.302 13.656 218.742 14.424 218.422 15.448H226.174C226.254 14.488 226.014 13.736 225.454 13.192C224.894 12.632 224.07 12.352 222.982 12.352Z"/>
</mask>
<path d="M20.2253 10.288H23.6093L21.6173 22.864H18.2333L18.9773 18.136C17.2493 18.44 15.7853 18.592 14.5853 18.592C12.8893 18.592 11.6493 18.232 10.8653 17.512C10.0813 16.776 9.82528 15.584 10.0973 13.936L10.6733 10.288H14.0573L13.5533 13.552C13.4253 14.384 13.5533 14.968 13.9373 15.304C14.3373 15.64 15.0653 15.808 16.1213 15.808C17.0973 15.808 18.1933 15.664 19.4093 15.376L20.2253 10.288Z" fill="white"/>
<path d="M37.9467 10.288L37.5147 13.072H32.5947L31.0587 22.864H27.6747L29.2107 13.072H24.3147L24.7467 10.288H37.9467Z" fill="white"/>
<path d="M36.9897 17.608C36.9897 15.304 37.7657 13.464 39.3177 12.088C40.8857 10.696 42.9257 10 45.4377 10C47.4217 10 48.9737 10.488 50.0937 11.464C51.2297 12.44 51.7977 13.8 51.7977 15.544C51.7977 17.848 51.0137 19.696 49.4457 21.088C47.8937 22.464 45.8697 23.152 43.3737 23.152C41.3897 23.152 39.8297 22.664 38.6937 21.688C37.5577 20.696 36.9897 19.336 36.9897 17.608ZM40.3497 17.224C40.3497 18.216 40.6537 19.016 41.2617 19.624C41.8697 20.232 42.7097 20.536 43.7817 20.536C45.1577 20.536 46.2777 20.104 47.1417 19.24C48.0217 18.36 48.4617 17.256 48.4617 15.928C48.4617 14.936 48.1577 14.136 47.5497 13.528C46.9577 12.92 46.1257 12.616 45.0537 12.616C43.6617 12.616 42.5257 13.056 41.6457 13.936C40.7817 14.8 40.3497 15.896 40.3497 17.224Z" fill="white"/>
<path d="M53.416 14.392H60.976L60.568 17.008H53.008L53.416 14.392Z" fill="white"/>
<path d="M75.3088 10.288L74.8768 13.072H69.9568L68.4208 22.864H65.0368L66.5728 13.072H61.6768L62.1088 10.288H75.3088Z" fill="white"/>
<path d="M74.3518 17.608C74.3518 15.304 75.1278 13.464 76.6798 12.088C78.2478 10.696 80.2878 10 82.7998 10C84.7838 10 86.3358 10.488 87.4558 11.464C88.5918 12.44 89.1598 13.8 89.1598 15.544C89.1598 17.848 88.3758 19.696 86.8078 21.088C85.2558 22.464 83.2318 23.152 80.7358 23.152C78.7518 23.152 77.1918 22.664 76.0558 21.688C74.9198 20.696 74.3518 19.336 74.3518 17.608ZM77.7118 17.224C77.7118 18.216 78.0158 19.016 78.6238 19.624C79.2318 20.232 80.0718 20.536 81.1438 20.536C82.5198 20.536 83.6398 20.104 84.5038 19.24C85.3838 18.36 85.8238 17.256 85.8238 15.928C85.8238 14.936 85.5198 14.136 84.9118 13.528C84.3198 12.92 83.4878 12.616 82.4158 12.616C81.0238 12.616 79.8878 13.056 79.0078 13.936C78.1438 14.8 77.7118 15.896 77.7118 17.224Z" fill="white"/>
<path d="M106.712 10.288H110.096L108.104 22.864H104.72L105.512 17.848H98.9599L98.1679 22.864H94.7839L96.7759 10.288H100.16L99.4159 15.04H105.968L106.712 10.288Z" fill="white"/>
<path d="M110.542 17.608C110.542 15.304 111.318 13.464 112.87 12.088C114.438 10.696 116.478 10 118.99 10C120.974 10 122.526 10.488 123.646 11.464C124.782 12.44 125.35 13.8 125.35 15.544C125.35 17.848 124.566 19.696 122.998 21.088C121.446 22.464 119.422 23.152 116.926 23.152C114.942 23.152 113.382 22.664 112.246 21.688C111.11 20.696 110.542 19.336 110.542 17.608ZM113.902 17.224C113.902 18.216 114.206 19.016 114.814 19.624C115.422 20.232 116.262 20.536 117.334 20.536C118.71 20.536 119.83 20.104 120.694 19.24C121.574 18.36 122.014 17.256 122.014 15.928C122.014 14.936 121.71 14.136 121.102 13.528C120.51 12.92 119.678 12.616 118.606 12.616C117.214 12.616 116.078 13.056 115.198 13.936C114.334 14.8 113.902 15.896 113.902 17.224Z" fill="white"/>
<path d="M136.088 16.336C138.344 16.608 139.472 17.488 139.472 18.976C139.472 19.44 139.384 19.88 139.208 20.296C139.032 20.696 138.736 21.104 138.32 21.52C137.92 21.936 137.304 22.264 136.472 22.504C135.64 22.744 134.648 22.864 133.496 22.864H125.84L127.832 10.288H135.128C136.76 10.288 137.96 10.552 138.728 11.08C139.496 11.592 139.88 12.272 139.88 13.12C139.88 14.864 138.616 15.936 136.088 16.336ZM136.496 13.912C136.496 13.128 135.792 12.736 134.384 12.736H130.832L130.4 15.4H134.096C135.696 15.4 136.496 14.904 136.496 13.912ZM133.448 20.416C135.208 20.416 136.088 19.872 136.088 18.784C136.088 17.936 135.328 17.512 133.808 17.512H130.064L129.608 20.416H133.448Z" fill="white"/>
<path d="M149.158 10C153.814 10 155.766 12.4 155.014 17.2L154.966 17.584H143.95C143.982 18.656 144.318 19.464 144.958 20.008C145.614 20.536 146.502 20.8 147.622 20.8C149.19 20.8 150.382 20.288 151.198 19.264L154.486 19.432C153.91 20.616 152.998 21.536 151.75 22.192C150.502 22.832 148.998 23.152 147.238 23.152C145.174 23.152 143.55 22.696 142.366 21.784C141.198 20.872 140.614 19.512 140.614 17.704C140.614 15.208 141.398 13.304 142.966 11.992C144.55 10.664 146.614 10 149.158 10ZM148.774 12.352C147.654 12.352 146.694 12.616 145.894 13.144C145.094 13.656 144.534 14.424 144.214 15.448H151.966C152.046 14.488 151.806 13.736 151.246 13.192C150.686 12.632 149.862 12.352 148.774 12.352Z" fill="white"/>
<path d="M167.513 10.288H170.897L168.905 22.864H165.521L166.313 17.848H159.761L158.969 22.864H155.585L157.577 10.288H160.961L160.217 15.04H166.769L167.513 10.288Z" fill="white"/>
<path d="M179.359 14.608C182.767 14.608 184.471 15.768 184.471 18.088C184.471 21.272 182.327 22.864 178.039 22.864H171.031L173.023 10.288H176.407L175.735 14.608H179.359ZM178.231 20.344C180.135 20.344 181.087 19.72 181.087 18.472C181.087 17.512 180.311 17.032 178.759 17.032H175.327L174.823 20.344H178.231Z" fill="white"/>
<path d="M200.715 10.288L193.731 16.24L199.107 22.864H194.811L191.163 17.848H189.387L188.595 22.864H185.211L187.203 10.288H190.587L189.819 15.208H191.307L196.467 10.288H200.715Z" fill="white"/>
<path d="M199.212 17.608C199.212 15.304 199.988 13.464 201.54 12.088C203.108 10.696 205.148 10 207.66 10C209.644 10 211.196 10.488 212.316 11.464C213.452 12.44 214.02 13.8 214.02 15.544C214.02 17.848 213.236 19.696 211.668 21.088C210.116 22.464 208.092 23.152 205.596 23.152C203.612 23.152 202.052 22.664 200.916 21.688C199.78 20.696 199.212 19.336 199.212 17.608ZM202.572 17.224C202.572 18.216 202.876 19.016 203.484 19.624C204.092 20.232 204.932 20.536 206.004 20.536C207.38 20.536 208.5 20.104 209.364 19.24C210.244 18.36 210.684 17.256 210.684 15.928C210.684 14.936 210.38 14.136 209.772 13.528C209.18 12.92 208.348 12.616 207.276 12.616C205.884 12.616 204.748 13.056 203.868 13.936C203.004 14.8 202.572 15.896 202.572 17.224Z" fill="white"/>
<path d="M223.366 10C228.022 10 229.974 12.4 229.222 17.2L229.174 17.584H218.158C218.19 18.656 218.526 19.464 219.166 20.008C219.822 20.536 220.71 20.8 221.83 20.8C223.398 20.8 224.59 20.288 225.406 19.264L228.694 19.432C228.118 20.616 227.206 21.536 225.958 22.192C224.71 22.832 223.206 23.152 221.446 23.152C219.382 23.152 217.758 22.696 216.574 21.784C215.406 20.872 214.822 19.512 214.822 17.704C214.822 15.208 215.606 13.304 217.174 11.992C218.758 10.664 220.822 10 223.366 10ZM222.982 12.352C221.862 12.352 220.902 12.616 220.102 13.144C219.302 13.656 218.742 14.424 218.422 15.448H226.174C226.254 14.488 226.014 13.736 225.454 13.192C224.894 12.632 224.07 12.352 222.982 12.352Z" fill="white"/>
<path d="M20.2253 10.288H23.6093L21.6173 22.864H18.2333L18.9773 18.136C17.2493 18.44 15.7853 18.592 14.5853 18.592C12.8893 18.592 11.6493 18.232 10.8653 17.512C10.0813 16.776 9.82528 15.584 10.0973 13.936L10.6733 10.288H14.0573L13.5533 13.552C13.4253 14.384 13.5533 14.968 13.9373 15.304C14.3373 15.64 15.0653 15.808 16.1213 15.808C17.0973 15.808 18.1933 15.664 19.4093 15.376L20.2253 10.288Z" stroke="#333F48" stroke-width="20" stroke-linejoin="round" mask="url(#path-1-outside-1_57_336)"/>
<path d="M37.9467 10.288L37.5147 13.072H32.5947L31.0587 22.864H27.6747L29.2107 13.072H24.3147L24.7467 10.288H37.9467Z" stroke="#333F48" stroke-width="20" stroke-linejoin="round" mask="url(#path-1-outside-1_57_336)"/>
<path d="M36.9897 17.608C36.9897 15.304 37.7657 13.464 39.3177 12.088C40.8857 10.696 42.9257 10 45.4377 10C47.4217 10 48.9737 10.488 50.0937 11.464C51.2297 12.44 51.7977 13.8 51.7977 15.544C51.7977 17.848 51.0137 19.696 49.4457 21.088C47.8937 22.464 45.8697 23.152 43.3737 23.152C41.3897 23.152 39.8297 22.664 38.6937 21.688C37.5577 20.696 36.9897 19.336 36.9897 17.608ZM40.3497 17.224C40.3497 18.216 40.6537 19.016 41.2617 19.624C41.8697 20.232 42.7097 20.536 43.7817 20.536C45.1577 20.536 46.2777 20.104 47.1417 19.24C48.0217 18.36 48.4617 17.256 48.4617 15.928C48.4617 14.936 48.1577 14.136 47.5497 13.528C46.9577 12.92 46.1257 12.616 45.0537 12.616C43.6617 12.616 42.5257 13.056 41.6457 13.936C40.7817 14.8 40.3497 15.896 40.3497 17.224Z" stroke="#333F48" stroke-width="20" stroke-linejoin="round" mask="url(#path-1-outside-1_57_336)"/>
<path d="M53.416 14.392H60.976L60.568 17.008H53.008L53.416 14.392Z" stroke="#333F48" stroke-width="20" stroke-linejoin="round" mask="url(#path-1-outside-1_57_336)"/>
<path d="M75.3088 10.288L74.8768 13.072H69.9568L68.4208 22.864H65.0368L66.5728 13.072H61.6768L62.1088 10.288H75.3088Z" stroke="#333F48" stroke-width="20" stroke-linejoin="round" mask="url(#path-1-outside-1_57_336)"/>
<path d="M74.3518 17.608C74.3518 15.304 75.1278 13.464 76.6798 12.088C78.2478 10.696 80.2878 10 82.7998 10C84.7838 10 86.3358 10.488 87.4558 11.464C88.5918 12.44 89.1598 13.8 89.1598 15.544C89.1598 17.848 88.3758 19.696 86.8078 21.088C85.2558 22.464 83.2318 23.152 80.7358 23.152C78.7518 23.152 77.1918 22.664 76.0558 21.688C74.9198 20.696 74.3518 19.336 74.3518 17.608ZM77.7118 17.224C77.7118 18.216 78.0158 19.016 78.6238 19.624C79.2318 20.232 80.0718 20.536 81.1438 20.536C82.5198 20.536 83.6398 20.104 84.5038 19.24C85.3838 18.36 85.8238 17.256 85.8238 15.928C85.8238 14.936 85.5198 14.136 84.9118 13.528C84.3198 12.92 83.4878 12.616 82.4158 12.616C81.0238 12.616 79.8878 13.056 79.0078 13.936C78.1438 14.8 77.7118 15.896 77.7118 17.224Z" stroke="#333F48" stroke-width="20" stroke-linejoin="round" mask="url(#path-1-outside-1_57_336)"/>
<path d="M106.712 10.288H110.096L108.104 22.864H104.72L105.512 17.848H98.9599L98.1679 22.864H94.7839L96.7759 10.288H100.16L99.4159 15.04H105.968L106.712 10.288Z" stroke="#333F48" stroke-width="20" stroke-linejoin="round" mask="url(#path-1-outside-1_57_336)"/>
<path d="M110.542 17.608C110.542 15.304 111.318 13.464 112.87 12.088C114.438 10.696 116.478 10 118.99 10C120.974 10 122.526 10.488 123.646 11.464C124.782 12.44 125.35 13.8 125.35 15.544C125.35 17.848 124.566 19.696 122.998 21.088C121.446 22.464 119.422 23.152 116.926 23.152C114.942 23.152 113.382 22.664 112.246 21.688C111.11 20.696 110.542 19.336 110.542 17.608ZM113.902 17.224C113.902 18.216 114.206 19.016 114.814 19.624C115.422 20.232 116.262 20.536 117.334 20.536C118.71 20.536 119.83 20.104 120.694 19.24C121.574 18.36 122.014 17.256 122.014 15.928C122.014 14.936 121.71 14.136 121.102 13.528C120.51 12.92 119.678 12.616 118.606 12.616C117.214 12.616 116.078 13.056 115.198 13.936C114.334 14.8 113.902 15.896 113.902 17.224Z" stroke="#333F48" stroke-width="20" stroke-linejoin="round" mask="url(#path-1-outside-1_57_336)"/>
<path d="M136.088 16.336C138.344 16.608 139.472 17.488 139.472 18.976C139.472 19.44 139.384 19.88 139.208 20.296C139.032 20.696 138.736 21.104 138.32 21.52C137.92 21.936 137.304 22.264 136.472 22.504C135.64 22.744 134.648 22.864 133.496 22.864H125.84L127.832 10.288H135.128C136.76 10.288 137.96 10.552 138.728 11.08C139.496 11.592 139.88 12.272 139.88 13.12C139.88 14.864 138.616 15.936 136.088 16.336ZM136.496 13.912C136.496 13.128 135.792 12.736 134.384 12.736H130.832L130.4 15.4H134.096C135.696 15.4 136.496 14.904 136.496 13.912ZM133.448 20.416C135.208 20.416 136.088 19.872 136.088 18.784C136.088 17.936 135.328 17.512 133.808 17.512H130.064L129.608 20.416H133.448Z" stroke="#333F48" stroke-width="20" stroke-linejoin="round" mask="url(#path-1-outside-1_57_336)"/>
<path d="M149.158 10C153.814 10 155.766 12.4 155.014 17.2L154.966 17.584H143.95C143.982 18.656 144.318 19.464 144.958 20.008C145.614 20.536 146.502 20.8 147.622 20.8C149.19 20.8 150.382 20.288 151.198 19.264L154.486 19.432C153.91 20.616 152.998 21.536 151.75 22.192C150.502 22.832 148.998 23.152 147.238 23.152C145.174 23.152 143.55 22.696 142.366 21.784C141.198 20.872 140.614 19.512 140.614 17.704C140.614 15.208 141.398 13.304 142.966 11.992C144.55 10.664 146.614 10 149.158 10ZM148.774 12.352C147.654 12.352 146.694 12.616 145.894 13.144C145.094 13.656 144.534 14.424 144.214 15.448H151.966C152.046 14.488 151.806 13.736 151.246 13.192C150.686 12.632 149.862 12.352 148.774 12.352Z" stroke="#333F48" stroke-width="20" stroke-linejoin="round" mask="url(#path-1-outside-1_57_336)"/>
<path d="M167.513 10.288H170.897L168.905 22.864H165.521L166.313 17.848H159.761L158.969 22.864H155.585L157.577 10.288H160.961L160.217 15.04H166.769L167.513 10.288Z" stroke="#333F48" stroke-width="20" stroke-linejoin="round" mask="url(#path-1-outside-1_57_336)"/>
<path d="M179.359 14.608C182.767 14.608 184.471 15.768 184.471 18.088C184.471 21.272 182.327 22.864 178.039 22.864H171.031L173.023 10.288H176.407L175.735 14.608H179.359ZM178.231 20.344C180.135 20.344 181.087 19.72 181.087 18.472C181.087 17.512 180.311 17.032 178.759 17.032H175.327L174.823 20.344H178.231Z" stroke="#333F48" stroke-width="20" stroke-linejoin="round" mask="url(#path-1-outside-1_57_336)"/>
<path d="M200.715 10.288L193.731 16.24L199.107 22.864H194.811L191.163 17.848H189.387L188.595 22.864H185.211L187.203 10.288H190.587L189.819 15.208H191.307L196.467 10.288H200.715Z" stroke="#333F48" stroke-width="20" stroke-linejoin="round" mask="url(#path-1-outside-1_57_336)"/>
<path d="M199.212 17.608C199.212 15.304 199.988 13.464 201.54 12.088C203.108 10.696 205.148 10 207.66 10C209.644 10 211.196 10.488 212.316 11.464C213.452 12.44 214.02 13.8 214.02 15.544C214.02 17.848 213.236 19.696 211.668 21.088C210.116 22.464 208.092 23.152 205.596 23.152C203.612 23.152 202.052 22.664 200.916 21.688C199.78 20.696 199.212 19.336 199.212 17.608ZM202.572 17.224C202.572 18.216 202.876 19.016 203.484 19.624C204.092 20.232 204.932 20.536 206.004 20.536C207.38 20.536 208.5 20.104 209.364 19.24C210.244 18.36 210.684 17.256 210.684 15.928C210.684 14.936 210.38 14.136 209.772 13.528C209.18 12.92 208.348 12.616 207.276 12.616C205.884 12.616 204.748 13.056 203.868 13.936C203.004 14.8 202.572 15.896 202.572 17.224Z" stroke="#333F48" stroke-width="20" stroke-linejoin="round" mask="url(#path-1-outside-1_57_336)"/>
<path d="M223.366 10C228.022 10 229.974 12.4 229.222 17.2L229.174 17.584H218.158C218.19 18.656 218.526 19.464 219.166 20.008C219.822 20.536 220.71 20.8 221.83 20.8C223.398 20.8 224.59 20.288 225.406 19.264L228.694 19.432C228.118 20.616 227.206 21.536 225.958 22.192C224.71 22.832 223.206 23.152 221.446 23.152C219.382 23.152 217.758 22.696 216.574 21.784C215.406 20.872 214.822 19.512 214.822 17.704C214.822 15.208 215.606 13.304 217.174 11.992C218.758 10.664 220.822 10 223.366 10ZM222.982 12.352C221.862 12.352 220.902 12.616 220.102 13.144C219.302 13.656 218.742 14.424 218.422 15.448H226.174C226.254 14.488 226.014 13.736 225.454 13.192C224.894 12.632 224.07 12.352 222.982 12.352Z" stroke="#333F48" stroke-width="20" stroke-linejoin="round" mask="url(#path-1-outside-1_57_336)"/>
</svg>
